<?xml version="1.0" encoding="UTF-8"?> <svg xmlns="http://www.w3.org/2000/svg" width="29" height="38" viewBox="0 0 29 38" fill="none"> <path d="M0.367937 2.34518C0.967737 2.41174 1.54896 2.59159 2.15805 2.60151C7.51205 2.58327 11.867 4.93404 15.7146 8.25013C17.0398 9.39134 18.1443 10.9914 18.8664 12.6177C20.9897 17.2282 21.9616 22.1201 21.6216 27.2096C21.5265 28.6766 21.1388 30.155 20.5242 31.5972C20.3955 31.1408 20.2431 30.6515 20.1473 30.1713C19.8507 28.7872 19.5872 27.3793 19.201 26.01C19.0341 25.4312 18.6312 24.873 18.2191 24.3714C18.0769 24.1743 17.5668 24.093 17.3452 24.203C17.1236 24.3129 16.9029 24.7718 16.9884 24.9598C18.1452 28.37 18.2496 31.9902 18.6561 35.5423C18.8011 36.786 19.3359 37.249 20.5109 37.0004C23.408 36.358 26.0579 35.0949 28.4184 33.2917C28.4843 33.2441 28.4885 33.0413 28.5442 32.7015C26.4204 31.2876 24.736 33.4021 22.3666 33.6637C22.5965 33.1482 22.8079 32.7459 22.9295 32.3585C25.0561 24.5314 23.8032 17.0955 20.1954 10.0107C19.673 8.93934 18.8487 7.93609 17.9729 7.06993C14.7394 3.90989 10.8998 1.78657 6.44052 0.959391C4.99978 0.700635 3.46106 0.86217 1.9883 0.976101C1.40291 0.999017 0.84219 1.40366 0.309324 1.63837C0.328861 1.87397 0.348399 2.10958 0.367937 2.34518Z" fill="#68C5C8"></path> </svg> 