<?xml version="1.0" encoding="UTF-8"?> <svg xmlns="http://www.w3.org/2000/svg" width="34" height="34" viewBox="0 0 34 34" fill="none"> <circle cx="16.5882" cy="16.5882" r="16.5882" fill="#68C5C8"></circle> <g clip-path="url(#clip0_1157_869)"> <path d="M18.6469 24.5577H14.5303C12.6388 24.5577 11.0999 23.0187 11.0999 21.1272V10.4241C11.0999 8.53256 12.6388 6.99365 14.5303 6.99365H18.6469C20.5384 6.99365 22.0774 8.53256 22.0774 10.4241V21.1272C22.0774 23.0187 20.5384 24.5577 18.6469 24.5577ZM14.5303 8.36584C13.3954 8.36584 12.472 9.28918 12.472 10.4241V21.1272C12.472 22.2621 13.3954 23.1855 14.5303 23.1855H18.6469C19.7818 23.1855 20.7052 22.2621 20.7052 21.1272V10.4241C20.7052 9.28918 19.7818 8.36584 18.6469 8.36584H14.5303Z" fill="white"></path> <path d="M17.2741 21.8158H15.9019C15.523 21.8158 15.2158 21.5086 15.2158 21.1297C15.2158 20.7508 15.523 20.4436 15.9019 20.4436H17.2741C17.653 20.4436 17.9602 20.7508 17.9602 21.1297C17.9602 21.5086 17.653 21.8158 17.2741 21.8158Z" fill="white"></path> <path d="M17.2741 11.1099H15.9019C15.523 11.1099 15.2158 10.8027 15.2158 10.4238C15.2158 10.0448 15.523 9.73767 15.9019 9.73767H17.2741C17.653 9.73767 17.9602 10.0448 17.9602 10.4238C17.9602 10.8027 17.653 11.1099 17.2741 11.1099Z" fill="white"></path> </g> <defs> <clipPath id="clip0_1157_869"> <rect width="17.564" height="17.564" fill="white" transform="translate(7.80737 7)"></rect> </clipPath> </defs> </svg> 