<?xml version="1.0" encoding="UTF-8"?> <svg xmlns="http://www.w3.org/2000/svg" width="29" height="37" viewBox="0 0 29 37" fill="none"> <path d="M0.45363 2.26971C1.05343 2.33627 1.63466 2.51612 2.24374 2.52604C7.59774 2.5078 11.9526 4.85857 15.8003 8.17466C17.1255 9.31587 18.23 10.9159 18.9521 12.5422C21.0753 17.1527 22.0473 22.0446 21.7073 27.1342C21.6122 28.6011 21.2244 30.0795 20.6099 31.5218C20.4812 31.0653 20.3288 30.576 20.233 30.0958C19.9364 28.7117 19.6729 27.3038 19.2866 25.9345C19.1198 25.3558 18.7169 24.7975 18.3048 24.2959C18.1626 24.0988 17.6525 24.0175 17.4309 24.1275C17.2093 24.2375 16.9886 24.6963 17.0741 24.8843C18.2309 28.2945 18.3353 31.9147 18.7417 35.4668C18.8868 36.7105 19.4216 37.1735 20.5966 36.925C23.4937 36.2825 26.1436 35.0195 28.5041 33.2162C28.57 33.1686 28.5742 32.9659 28.6299 32.626C26.5061 31.2122 24.8217 33.3266 22.4523 33.5882C22.6822 33.0727 22.8935 32.6705 23.0152 32.283C25.1418 24.456 23.8889 17.02 20.2811 9.93521C19.7587 8.86387 18.9344 7.86062 18.0586 6.99446C14.8251 3.83442 10.9855 1.7111 6.52622 0.883921C5.08548 0.625165 3.54675 0.7867 2.074 0.900631C1.48861 0.923547 0.927884 1.32819 0.395017 1.5629C0.414555 1.7985 0.434093 2.03411 0.45363 2.26971Z" fill="#68C5C8"></path> </svg> 