<?xml version="1.0" encoding="UTF-8"?> <svg xmlns="http://www.w3.org/2000/svg" width="42" height="43" viewBox="0 0 42 43" fill="none"> <circle cx="20.7847" cy="21.2171" r="20.7847" fill="#68C5C8"></circle> <g clip-path="url(#clip0_1157_870)"> <path d="M12.3771 19.4037L19.7582 13.1358C20.2786 12.7021 21.0345 12.7021 21.5549 13.1358L28.9359 19.4037" stroke="white" stroke-width="1.40329" stroke-miterlimit="10" stroke-linecap="round" stroke-linejoin="round"></path> <path d="M27.5327 21.8876V26.5603C27.5327 28.1104 26.2761 29.3669 24.7261 29.3669H16.587C15.0369 29.3669 13.7804 28.1104 13.7804 26.5603V18.2341" stroke="white" stroke-width="1.40329" stroke-miterlimit="10" stroke-linecap="round" stroke-linejoin="round"></path> <path d="M22.7614 22.3506C23.924 22.3506 24.8664 21.4082 24.8664 20.2457C24.8664 19.0832 23.924 18.1407 22.7614 18.1407C21.5989 18.1407 20.6565 19.0832 20.6565 20.2457C20.6565 21.4082 21.5989 22.3506 22.7614 22.3506Z" stroke="white" stroke-width="1.40329" stroke-miterlimit="10" stroke-linecap="round" stroke-linejoin="round"></path> <path d="M21.2731 21.734L17.304 25.7031L18.2962 26.6954" stroke="white" stroke-width="1.40329" stroke-miterlimit="10" stroke-linecap="round" stroke-linejoin="round"></path> <path d="M20.2807 24.7109L19.2885 23.7186" stroke="white" stroke-width="1.40329" stroke-miterlimit="10" stroke-linecap="round" stroke-linejoin="round"></path> </g> <defs> <clipPath id="clip0_1157_870"> <rect width="17.9622" height="17.9622" fill="white" transform="translate(11.6754 12.1077)"></rect> </clipPath> </defs> </svg> 